<svg width="20" height="19" viewBox="0 0 20 19" fill="white" xmlns="http://www.w3.org/2000/svg">
<path d="M10 15.3579C11.25 15.3579 12.3127 14.9202 13.188 14.0449C14.0633 13.1696 14.5007 12.1072 14.5 10.8579C14.5 9.60791 14.0623 8.54524 13.187 7.66991C12.3117 6.79458 11.2493 6.35724 10 6.35791C8.75 6.35791 7.68734 6.79558 6.812 7.67091C5.93667 8.54624 5.49934 9.60858 5.5 10.8579C5.5 12.1079 5.93767 13.1706 6.813 14.0459C7.68834 14.9212 8.75067 15.3586 10 15.3579ZM10 13.3579C9.3 13.3579 8.70834 13.1162 8.225 12.6329C7.74167 12.1496 7.5 11.5579 7.5 10.8579C7.5 10.1579 7.74167 9.56624 8.225 9.08291C8.70834 8.59958 9.3 8.35791 10 8.35791C10.7 8.35791 11.2917 8.59958 11.775 9.08291C12.2583 9.56624 12.5 10.1579 12.5 10.8579C12.5 11.5579 12.2583 12.1496 11.775 12.6329C11.2917 13.1162 10.7 13.3579 10 13.3579ZM2 18.8579C1.45 18.8579 0.979002 18.6619 0.587002 18.2699C0.195002 17.8779 -0.000664969 17.4072 1.69779e-06 16.8579V4.85791C1.69779e-06 4.30791 0.196002 3.83691 0.588002 3.44491C0.980002 3.05291 1.45067 2.85724 2 2.85791H5.15L7 0.85791H13L14.85 2.85791H18C18.55 2.85791 19.021 3.05391 19.413 3.44591C19.805 3.83791 20.0007 4.30858 20 4.85791V16.8579C20 17.4079 19.804 17.8789 19.412 18.2709C19.02 18.6629 18.5493 18.8586 18 18.8579H2Z" fill="white"/>
</svg>
