<svg width="51" height="54" viewBox="0 0 51 54" fill="none" xmlns="http://www.w3.org/2000/svg">
<path d="M50.0906 33.7731L46.1887 30.4372C46.3734 29.3054 46.4687 28.1497 46.4687 26.994C46.4687 25.8384 46.3734 24.6827 46.1887 23.5509L50.0906 20.2149C50.3849 19.963 50.5955 19.6274 50.6945 19.2529C50.7934 18.8783 50.776 18.4825 50.6446 18.1181L50.591 17.9632C49.5168 14.961 47.9083 12.1779 45.8432 9.74843L45.736 9.62333C45.4855 9.32877 45.1516 9.11702 44.7783 9.016C44.4051 8.91498 44.01 8.92942 43.6451 9.05742L38.802 10.779C37.0149 9.31357 35.0193 8.1579 32.8629 7.34775L31.9276 2.28427C31.857 1.90327 31.6722 1.55276 31.3977 1.27931C31.1232 1.00585 30.772 0.822396 30.3907 0.753314L30.2298 0.723529C27.1262 0.163568 23.8618 0.163568 20.7582 0.723529L20.5973 0.753314C20.2161 0.822396 19.8648 1.00585 19.5903 1.27931C19.3158 1.55276 19.131 1.90327 19.0604 2.28427L18.1192 7.37158C15.98 8.1819 13.9878 9.33695 12.2217 10.7909L7.34293 9.05742C6.97816 8.9284 6.58276 8.91344 6.20928 9.01452C5.8358 9.11561 5.50192 9.32795 5.25201 9.62333L5.14479 9.74843C3.08214 12.1796 1.47392 14.9622 0.397034 17.9632L0.34342 18.1181C0.0753538 18.8627 0.295764 19.6967 0.897424 20.2149L4.84694 23.5866C4.66227 24.7065 4.57291 25.8503 4.57291 26.9881C4.57291 28.1318 4.66227 29.2756 4.84694 30.3895L0.897424 33.7612C0.603121 34.0132 0.392485 34.3487 0.293524 34.7233C0.194563 35.0979 0.211966 35.4937 0.34342 35.8581L0.397034 36.013C1.47526 39.0153 3.07174 41.7853 5.14479 44.2277L5.25201 44.3528C5.50253 44.6474 5.83642 44.8591 6.20968 44.9602C6.58294 45.0612 6.97804 45.0467 7.34293 44.9187L12.2217 43.1852C13.9969 44.6447 15.9806 45.8004 18.1192 46.6046L19.0604 51.6919C19.131 52.0729 19.3158 52.4234 19.5903 52.6969C19.8648 52.9703 20.2161 53.1538 20.5973 53.2228L20.7582 53.2526C23.8903 53.8156 27.0977 53.8156 30.2298 53.2526L30.3907 53.2228C30.772 53.1538 31.1232 52.9703 31.3977 52.6969C31.6722 52.4234 31.857 52.0729 31.9276 51.6919L32.8629 46.6284C35.0184 45.8204 37.0253 44.6609 38.802 43.1972L43.6451 44.9187C44.0099 45.0478 44.4053 45.0627 44.7787 44.9616C45.1522 44.8606 45.4861 44.6482 45.736 44.3528L45.8432 44.2277C47.9163 41.7794 49.5128 39.0153 50.591 36.013L50.6446 35.8581C50.9127 35.1254 50.6922 34.2914 50.0906 33.7731ZM41.9592 24.2538C42.1082 25.1533 42.1856 26.0767 42.1856 27C42.1856 27.9233 42.1082 28.8467 41.9592 29.7462L41.5661 32.135L46.016 35.9415C45.3414 37.4956 44.4899 38.9668 43.4783 40.3259L37.9502 38.366L36.0796 39.9029C34.6559 41.0705 33.0714 41.9879 31.3557 42.6312L29.0861 43.4831L28.0198 49.2614C26.3373 49.452 24.6388 49.452 22.9563 49.2614L21.89 43.4712L19.6382 42.6074C17.9405 41.9641 16.3619 41.0467 14.9501 39.8851L13.0796 38.3422L7.51569 40.3199C6.50299 38.9558 5.65709 37.4844 4.97799 35.9355L9.47555 32.0933L9.08834 29.7104C8.94537 28.8228 8.86793 27.9055 8.86793 27C8.86793 26.0886 8.93942 25.1771 9.08834 24.2895L9.47555 21.9067L4.97799 18.0644C5.65113 16.5097 6.50299 15.0442 7.51569 13.6801L13.0796 15.6578L14.9501 14.1149C16.3619 12.9533 17.9405 12.0359 19.6382 11.3926L21.896 10.5407L22.9623 4.75048C24.6362 4.55986 26.3459 4.55986 28.0257 4.75048L29.0921 10.5288L31.3617 11.3807C33.0714 12.024 34.6619 12.9414 36.0856 14.109L37.9561 15.6459L43.4842 13.686C44.4969 15.0502 45.3428 16.5216 46.0219 18.0704L41.572 21.8769L41.9592 24.2538ZM25.5 15.9199C19.7097 15.9199 15.0156 20.6141 15.0156 26.4043C15.0156 32.1945 19.7097 36.8887 25.5 36.8887C31.2902 36.8887 35.9843 32.1945 35.9843 26.4043C35.9843 20.6141 31.2902 15.9199 25.5 15.9199ZM30.2179 31.1223C29.5991 31.7428 28.8637 32.235 28.054 32.5703C27.2443 32.9056 26.3763 33.0775 25.5 33.0762C23.7188 33.0762 22.0449 32.3792 20.782 31.1223C20.1614 30.5035 19.6693 29.7681 19.334 28.9584C18.9986 28.1487 18.8267 27.2807 18.8281 26.4043C18.8281 24.6231 19.5251 22.9492 20.782 21.6863C22.0449 20.4234 23.7188 19.7324 25.5 19.7324C27.2811 19.7324 28.955 20.4234 30.2179 21.6863C30.8385 22.3051 31.3306 23.0405 31.666 23.8502C32.0013 24.6599 32.1732 25.5279 32.1718 26.4043C32.1718 28.1854 31.4749 29.8594 30.2179 31.1223Z" fill="white"/>
</svg>
