<svg width="45" height="56" viewBox="0 0 45 56" fill="none" xmlns="http://www.w3.org/2000/svg">
<path d="M22.5 53.4167H5.58329C4.94235 53.4167 4.32766 53.1489 3.87445 52.6722C3.42124 52.1956 3.16663 51.5491 3.16663 50.875V5.12501C3.16663 4.45092 3.42124 3.80444 3.87445 3.32778C4.32766 2.85113 4.94235 2.58334 5.58329 2.58334H39.4166C40.0576 2.58334 40.6723 2.85113 41.1255 3.32778C41.5787 3.80444 41.8333 4.45092 41.8333 5.12501V28M36.3958 53.4167V36.8958" stroke="white" stroke-width="5.08333" stroke-linecap="round" stroke-linejoin="round"/>
<path d="M30.9583 41.3438L32.7708 39.4375L36.3958 35.625L40.0208 39.4375L41.8333 41.3438" stroke="white" stroke-width="5.08333" stroke-linecap="round" stroke-linejoin="round"/>
<path d="M12.8333 17.8334H32.1666M12.8333 28H22.4999" stroke="white" stroke-width="5.08333" stroke-linecap="round"/>
</svg>
