<svg width="56" height="42" viewBox="0 0 56 42" fill="none" xmlns="http://www.w3.org/2000/svg">
<path d="M50.8333 0.708313H22.875C20.0792 0.708313 17.7917 2.99581 17.7917 5.79165V41.375L27.9583 31.2083H50.8333C53.6292 31.2083 55.9167 28.9208 55.9167 26.125V5.79165C55.9167 2.99581 53.6292 0.708313 50.8333 0.708313ZM50.8333 26.125H25.925L22.875 29.175V5.79165H50.8333V26.125ZM7.625 5.79165C6.1 5.79165 5.08333 6.80831 5.08333 8.33331C5.08333 9.85831 6.1 10.875 7.625 10.875H12.7083V5.79165H7.625ZM5.08333 15.9583C3.55833 15.9583 2.54167 16.975 2.54167 18.5C2.54167 20.025 3.55833 21.0416 5.08333 21.0416H12.7083V15.9583H5.08333ZM2.54167 26.125C1.01667 26.125 0 27.1416 0 28.6666C0 30.1916 1.01667 31.2083 2.54167 31.2083H12.7083V26.125H2.54167Z" fill="white"/>
</svg>
