<svg width="41" height="51" viewBox="0 0 41 51" fill="none" xmlns="http://www.w3.org/2000/svg">
<path d="M25.5833 0.0833435L40.8333 15.3333V45.8333C40.8333 47.1815 40.2977 48.4745 39.3444 49.4278C38.3911 50.3811 37.0981 50.9167 35.75 50.9167H5.24996C3.90178 50.9167 2.60881 50.3811 1.6555 49.4278C0.70219 48.4745 0.166626 47.1815 0.166626 45.8333V5.16668C0.166626 3.81849 0.70219 2.52553 1.6555 1.57222C2.60881 0.618907 3.90178 0.0833435 5.24996 0.0833435H25.5833ZM35.75 45.8333V17.875H23.0416V5.16668H5.24996V45.8333H35.75ZM19.2291 20.4167C25.5833 20.4167 30.6666 25.5 30.6666 31.8542C30.6666 38.2083 25.5833 43.2917 19.2291 43.2917C12.875 43.2917 7.79163 38.2083 7.79163 31.8542C7.79163 25.5 12.875 20.4167 19.2291 20.4167ZM19.2291 24.2292C17.8058 24.2292 16.4841 24.6104 15.4166 25.2967L25.7866 35.6667C26.4729 34.5992 26.8541 33.2775 26.8541 31.8542C26.8541 29.8319 26.0508 27.8925 24.6208 26.4625C23.1909 25.0325 21.2514 24.2292 19.2291 24.2292ZM11.6041 31.8542C11.6041 33.8765 12.4075 35.8159 13.8374 37.2459C15.2674 38.6758 17.2069 39.4792 19.2291 39.4792C20.6525 39.4792 21.9741 39.0979 23.0416 38.4117L12.6716 28.0417C11.9854 29.1092 11.6041 30.4308 11.6041 31.8542Z" fill="white"/>
</svg>
