<svg width="61" height="61" viewBox="0 0 61 61" fill="none" xmlns="http://www.w3.org/2000/svg">
<path d="M19.0625 34.3125H34.3125V38.125H19.0625V34.3125ZM19.0625 24.7812H41.9375V28.5938H19.0625V24.7812ZM19.0625 43.8438H28.5938V47.6562H19.0625V43.8438Z" fill="white"/>
<path d="M47.6562 9.53125H41.9375V7.625C41.9375 6.61386 41.5358 5.64414 40.8208 4.92916C40.1059 4.21417 39.1361 3.8125 38.125 3.8125H22.875C21.8639 3.8125 20.8941 4.21417 20.1792 4.92916C19.4642 5.64414 19.0625 6.61386 19.0625 7.625V9.53125H13.3438C12.3326 9.53125 11.3629 9.93292 10.6479 10.6479C9.93292 11.3629 9.53125 12.3326 9.53125 13.3438V53.375C9.53125 54.3861 9.93292 55.3559 10.6479 56.0708C11.3629 56.7858 12.3326 57.1875 13.3438 57.1875H47.6562C48.6674 57.1875 49.6371 56.7858 50.3521 56.0708C51.0671 55.3559 51.4688 54.3861 51.4688 53.375V13.3438C51.4688 12.3326 51.0671 11.3629 50.3521 10.6479C49.6371 9.93292 48.6674 9.53125 47.6562 9.53125ZM22.875 7.625H38.125V15.25H22.875V7.625ZM47.6562 53.375H13.3438V13.3438H19.0625V19.0625H41.9375V13.3438H47.6562V53.375Z" fill="white"/>
</svg>
