<svg width="59" height="51" viewBox="0 0 59 51" fill="none" xmlns="http://www.w3.org/2000/svg">
<path d="M55.8634 2.94908C55.1553 2.24084 54.3147 1.67904 53.3894 1.29573C52.4642 0.912434 51.4725 0.715149 50.4711 0.715149C49.4696 0.715149 48.4779 0.912434 47.5527 1.29573C46.6275 1.67904 45.7868 2.24084 45.0788 2.94908C44.3705 3.65715 43.8087 4.4978 43.4254 5.42302C43.0421 6.34824 42.8448 7.33991 42.8448 8.34138C42.8448 9.34286 43.0421 10.3345 43.4254 11.2597C43.8087 12.185 44.3705 13.0256 45.0788 13.7337C45.1479 13.8028 45.2217 13.8695 45.2932 13.9362L38.9478 25.7216C37.0132 25.2498 34.971 25.5489 33.2529 26.5556L28.4444 21.7471C29.3904 20.1482 29.7201 18.2589 29.3716 16.434C29.0231 14.6092 28.0203 12.9744 26.5517 11.8366C25.083 10.6988 23.2495 10.1364 21.3955 10.2549C19.5414 10.3735 17.7945 11.1648 16.4826 12.4803C15.7744 13.1884 15.2126 14.029 14.8293 14.9543C14.446 15.8795 14.2487 16.8712 14.2487 17.8726C14.2487 18.8741 14.446 19.8658 14.8293 20.791C15.2126 21.7162 15.7744 22.5569 16.4826 23.2649C16.5517 23.334 16.6232 23.4008 16.6947 23.4675L10.3493 35.2552C9.07558 34.9418 7.74255 34.9621 6.47903 35.3144C5.21551 35.6667 4.06424 36.339 3.13651 37.2663C2.07031 38.3328 1.34427 39.6914 1.0502 41.1705C0.756126 42.6496 0.907228 44.1826 1.4844 45.5758C2.06157 46.969 3.03888 48.1597 4.29277 48.9975C5.54666 49.8353 7.0208 50.2824 8.52881 50.2824C10.0368 50.2824 11.511 49.8353 12.7649 48.9975C14.0187 48.1597 14.9961 46.969 15.5732 45.5758C16.1504 44.1826 16.3015 42.6496 16.0074 41.1705C15.7134 39.6914 14.9873 38.3328 13.9211 37.2663C13.852 37.1972 13.7781 37.1305 13.7067 37.0638L20.0521 25.2784C20.6487 25.4245 21.2607 25.4989 21.8749 25.5C23.2363 25.5017 24.5733 25.1388 25.747 24.4492L30.5555 29.2577C29.8316 30.4863 29.4667 31.8933 29.5023 33.3189C29.5379 34.7444 29.9725 36.1314 30.7569 37.3224C31.5412 38.5133 32.6438 39.4605 33.9394 40.0562C35.235 40.652 36.6717 40.8725 38.0863 40.6927C39.5009 40.5129 40.8368 39.94 41.9422 39.0391C43.0476 38.1382 43.8782 36.9454 44.3396 35.5961C44.8011 34.2468 44.875 32.7952 44.5528 31.4061C44.2307 30.0169 43.5255 28.7459 42.5173 27.7375C42.4481 27.6684 42.3767 27.6017 42.3052 27.5349L48.6506 15.7495C49.2458 15.8946 49.8561 15.9682 50.4687 15.9688C51.9765 15.9685 53.4503 15.5213 54.704 14.6836C55.9576 13.8459 56.9347 12.6553 57.5119 11.2623C58.089 9.8694 58.2402 8.33662 57.9463 6.85776C57.6525 5.37889 56.9268 4.02035 55.861 2.95384L55.8634 2.94908ZM11.2238 45.356C10.5084 46.0711 9.53825 46.4727 8.52678 46.4724C7.5153 46.4722 6.54534 46.0702 5.83028 45.3548C5.11521 44.6394 4.71362 43.6693 4.71384 42.6578C4.71407 41.6463 5.11609 40.6764 5.83147 39.9613C6.18569 39.6072 6.60618 39.3264 7.06893 39.1349C7.53168 38.9433 8.02763 38.8448 8.52846 38.8449C9.0293 38.845 9.5252 38.9437 9.98787 39.1355C10.4505 39.3273 10.8709 39.6083 11.225 39.9625C11.579 40.3167 11.8599 40.7372 12.0514 41.2C12.243 41.6627 12.3415 42.1587 12.3414 42.6595C12.3413 43.1603 12.2425 43.6562 12.0508 44.1189C11.859 44.5816 11.578 45.0019 11.2238 45.356ZM19.1776 20.5747C18.8235 20.2207 18.5426 19.8004 18.3509 19.3378C18.1593 18.8752 18.0606 18.3793 18.0606 17.8786C18.0606 17.3778 18.1593 16.882 18.3509 16.4194C18.5426 15.9568 18.8235 15.5365 19.1776 15.1824C19.7108 14.6493 20.3901 14.2863 21.1297 14.1393C21.8692 13.9922 22.6357 14.0678 23.3323 14.3564C24.0289 14.645 24.6243 15.1336 25.0432 15.7606C25.4621 16.3875 25.6856 17.1246 25.6856 17.8786C25.6856 18.6326 25.4621 19.3697 25.0432 19.9966C24.6243 20.6236 24.0289 21.1122 23.3323 21.4008C22.6357 21.6894 21.8692 21.7649 21.1297 21.6179C20.3901 21.4709 19.7108 21.1078 19.1776 20.5747ZM39.8223 35.8247C39.1072 36.5398 38.1374 36.9415 37.1261 36.9415C36.1149 36.9415 35.145 36.5398 34.43 35.8247C33.7149 35.1097 33.3132 34.1398 33.3132 33.1286C33.3132 32.1173 33.7149 31.1475 34.43 30.4324C35.145 29.7174 36.1149 29.3157 37.1261 29.3157C38.1374 29.3157 39.1072 29.7174 39.8223 30.4324C40.5374 31.1475 40.9391 32.1173 40.9391 33.1286C40.9391 34.1398 40.5374 35.1097 39.8223 35.8247ZM53.166 11.0435C52.8115 11.3974 52.3907 11.678 51.9278 11.8693C51.4648 12.0606 50.9687 12.1588 50.4677 12.1584C49.9668 12.1579 49.4708 12.0588 49.0082 11.8667C48.5455 11.6746 48.1253 11.3933 47.7713 11.0387C47.4174 10.6842 47.1368 10.2634 46.9455 9.80044C46.7542 9.33746 46.656 8.84134 46.6565 8.34039C46.6569 7.83945 46.756 7.3435 46.9481 6.88086C47.1402 6.41822 47.4216 5.99794 47.7761 5.64404C48.1303 5.28997 48.5508 5.00915 49.0136 4.81759C49.4763 4.62603 49.9723 4.52749 50.4731 4.5276C50.9739 4.52771 51.4698 4.62647 51.9325 4.81823C52.3952 5.00999 52.8155 5.29101 53.1696 5.64523C53.5237 5.99945 53.8045 6.41994 53.9961 6.88269C54.1876 7.34544 54.2862 7.84139 54.286 8.34222C54.2859 8.84305 54.1872 9.33896 53.9954 9.80163C53.8037 10.2643 53.5226 10.6847 53.1684 11.0387L53.166 11.0435Z" fill="white"/>
</svg>
