<svg width="53" height="50" viewBox="0 0 53 50" fill="none" xmlns="http://www.w3.org/2000/svg">
<path d="M51.8483 45.5391C48.5814 39.8053 43.4801 35.3377 37.3656 32.8554C40.4063 30.5749 42.6523 27.3954 43.7856 23.7675C44.9189 20.1395 44.882 16.247 43.68 12.6412C42.4781 9.03538 40.1721 5.89916 37.0887 3.67677C34.0053 1.45438 30.3008 0.258484 26.5 0.258484C22.6991 0.258484 18.9946 1.45438 15.9112 3.67677C12.8278 5.89916 10.5218 9.03538 9.3199 12.6412C8.11797 16.247 8.08103 20.1395 9.21432 23.7675C10.3476 27.3954 12.5937 30.5749 15.6343 32.8554C9.51985 35.3377 4.41854 39.8053 1.1516 45.5391C0.94917 45.8646 0.81425 46.2275 0.754863 46.6061C0.695476 46.9848 0.712834 47.3716 0.805905 47.7434C0.898977 48.1153 1.06586 48.4646 1.29664 48.7706C1.52741 49.0767 1.81737 49.3332 2.14927 49.525C2.48117 49.7168 2.84824 49.8398 3.22865 49.8869C3.60906 49.9339 3.99505 49.904 4.36368 49.7989C4.7323 49.6938 5.07603 49.5157 5.37443 49.2751C5.67284 49.0345 5.91982 48.7364 6.1007 48.3984C10.4184 40.9355 18.0434 36.4844 26.5 36.4844C34.9566 36.4844 42.5816 40.9379 46.8992 48.3984C47.2912 49.0288 47.913 49.482 48.6331 49.6622C49.3531 49.8424 50.1151 49.7356 50.7578 49.3642C51.4005 48.9929 51.8736 48.3862 52.0771 47.6723C52.2806 46.9585 52.1986 46.1935 51.8483 45.5391ZM14.1093 18.375C14.1093 15.9244 14.836 13.5288 16.1975 11.4911C17.559 9.45352 19.4942 7.86538 21.7583 6.92756C24.0224 5.98975 26.5137 5.74437 28.9173 6.22247C31.3208 6.70056 33.5286 7.88065 35.2615 9.61351C36.9943 11.3464 38.1744 13.5542 38.6525 15.9577C39.1306 18.3613 38.8852 20.8526 37.9474 23.1167C37.0096 25.3808 35.4215 27.3159 33.3838 28.6774C31.3462 30.0389 28.9506 30.7656 26.5 30.7656C23.2149 30.7619 20.0655 29.4552 17.7426 27.1323C15.4198 24.8095 14.1131 21.66 14.1093 18.375Z" fill="white"/>
</svg>
