<svg width="47" height="42" viewBox="0 0 47 42" fill="none" xmlns="http://www.w3.org/2000/svg">
<path d="M10.7917 8.08333V33.5M3.16675 10.625V30.9583M18.4167 8.08333C18.4167 6.73515 18.9523 5.44218 19.9056 4.48887C20.8589 3.53556 22.1519 3 23.5001 3H38.7501C40.0983 3 41.3912 3.53556 42.3445 4.48887C43.2979 5.44218 43.8334 6.73515 43.8334 8.08333V33.5C43.8334 34.8482 43.2979 36.1411 42.3445 37.0945C41.3912 38.0478 40.0983 38.5833 38.7501 38.5833H23.5001C22.1519 38.5833 20.8589 38.0478 19.9056 37.0945C18.9523 36.1411 18.4167 34.8482 18.4167 33.5V8.08333Z" stroke="white" stroke-width="5.08333" stroke-linecap="round" stroke-linejoin="round"/>
</svg>
