<svg width="18" height="22" viewBox="0 0 18 22" fill="none" xmlns="http://www.w3.org/2000/svg">
<path d="M5 3H2.33333C1.97971 3 1.64057 3.14048 1.39052 3.39052C1.14048 3.64057 1 3.97971 1 4.33333V19C1 19.3536 1.14048 19.6928 1.39052 19.9428C1.64057 20.1929 1.97971 20.3333 2.33333 20.3333H15.6667C16.0203 20.3333 16.3594 20.1929 16.6095 19.9428C16.8595 19.6928 17 19.3536 17 19V4.33333C17 3.97971 16.8595 3.64057 16.6095 3.39052C16.3594 3.14048 16.0203 3 15.6667 3H13" stroke="white" stroke-width="1.5" stroke-linecap="round" stroke-linejoin="round"/>
<path d="M7.66797 8.33335H14.3346M7.66797 12.3334H14.3346M7.66797 16.3334H14.3346M3.66797 8.33335H5.0013M3.66797 12.3334H5.0013M3.66797 16.3334H5.0013M6.33464 1.66669H11.668C12.0216 1.66669 12.3607 1.80716 12.6108 2.05721C12.8608 2.30726 13.0013 2.6464 13.0013 3.00002C13.0013 3.35364 12.8608 3.69278 12.6108 3.94283C12.3607 4.19288 12.0216 4.33335 11.668 4.33335H6.33464C5.98101 4.33335 5.64188 4.19288 5.39183 3.94283C5.14178 3.69278 5.0013 3.35364 5.0013 3.00002C5.0013 2.6464 5.14178 2.30726 5.39183 2.05721C5.64188 1.80716 5.98101 1.66669 6.33464 1.66669Z" stroke="white" stroke-width="1.5" stroke-linecap="round" stroke-linejoin="round"/>
</svg>
