<svg width="21" height="22" viewBox="0 0 21 22" fill="none" xmlns="http://www.w3.org/2000/svg">
<path d="M17.373 7.78271C17.8597 8.02979 18.2977 8.33301 18.687 8.69238C19.0763 9.05176 19.4132 9.45605 19.6978 9.90527C19.9823 10.3545 20.1956 10.8337 20.3379 11.3428C20.4801 11.8519 20.555 12.3835 20.5625 12.9375H19.125C19.125 12.346 19.0127 11.7882 18.7881 11.2642C18.5635 10.7401 18.2528 10.2834 17.856 9.89404C17.4591 9.50472 17.0024 9.19775 16.4858 8.97314C15.9692 8.74854 15.4115 8.63249 14.8125 8.625C14.221 8.625 13.6632 8.7373 13.1392 8.96191C12.6151 9.18652 12.1584 9.49723 11.769 9.89404C11.3797 10.2909 11.0728 10.7476 10.8481 11.2642C10.6235 11.7808 10.5075 12.3385 10.5 12.9375C10.5 13.6188 10.3465 14.2664 10.0396 14.8804C9.73258 15.4943 9.30208 16.0034 8.74805 16.4077C9.2347 16.6548 9.67269 16.958 10.062 17.3174C10.4513 17.6768 10.7882 18.0811 11.0728 18.5303C11.3573 18.9795 11.5706 19.4587 11.7129 19.9678C11.8551 20.4769 11.93 21.0085 11.9375 21.5625H10.5C10.5 20.971 10.3877 20.4132 10.1631 19.8892C9.93848 19.3651 9.62777 18.9084 9.23096 18.519C8.83415 18.1297 8.37744 17.8228 7.86084 17.5981C7.34424 17.3735 6.78646 17.2575 6.1875 17.25C5.59603 17.25 5.03825 17.3623 4.51416 17.5869C3.99007 17.8115 3.53337 18.1222 3.14404 18.519C2.75472 18.9159 2.44775 19.3726 2.22314 19.8892C1.99854 20.4058 1.88249 20.9635 1.875 21.5625H0.4375C0.4375 21.016 0.51237 20.4881 0.662109 19.979C0.811849 19.4699 1.02523 18.9907 1.30225 18.5415C1.57926 18.0923 1.91243 17.688 2.30176 17.3286C2.69108 16.9692 3.13281 16.6623 3.62695 16.4077C3.0804 16.0034 2.65365 15.4943 2.34668 14.8804C2.03971 14.2664 1.88249 13.6188 1.875 12.9375C1.875 12.346 1.9873 11.7882 2.21191 11.2642C2.43652 10.7401 2.74723 10.2834 3.14404 9.89404C3.54085 9.50472 3.99756 9.19775 4.51416 8.97314C5.03076 8.74854 5.58854 8.63249 6.1875 8.625C6.86881 8.625 7.51644 8.77848 8.13037 9.08545C8.7443 9.39242 9.25342 9.82292 9.65771 10.377C9.94222 9.81543 10.3053 9.3138 10.7471 8.87207C11.1888 8.43034 11.6904 8.06722 12.252 7.78271C11.7054 7.37842 11.2786 6.8693 10.9717 6.25537C10.6647 5.64144 10.5075 4.99381 10.5 4.3125C10.5 3.72103 10.6123 3.16325 10.8369 2.63916C11.0615 2.11507 11.3722 1.65837 11.769 1.26904C12.1659 0.87972 12.6226 0.572754 13.1392 0.348145C13.6558 0.123535 14.2135 0.00748698 14.8125 0C15.404 0 15.9618 0.112305 16.4858 0.336914C17.0099 0.561523 17.4666 0.872233 17.856 1.26904C18.2453 1.66585 18.5522 2.12256 18.7769 2.63916C19.0015 3.15576 19.1175 3.71354 19.125 4.3125C19.125 4.99381 18.9715 5.64144 18.6646 6.25537C18.3576 6.8693 17.9271 7.37842 17.373 7.78271ZM6.1875 15.8125C6.57682 15.8125 6.94743 15.7376 7.29932 15.5879C7.6512 15.4382 7.95443 15.2323 8.20898 14.9702C8.46354 14.7082 8.66943 14.4049 8.82666 14.0605C8.98389 13.7161 9.0625 13.3418 9.0625 12.9375C9.0625 12.5482 8.98763 12.1776 8.83789 11.8257C8.68815 11.4738 8.48226 11.1706 8.22021 10.916C7.95817 10.6615 7.6512 10.4556 7.29932 10.2983C6.94743 10.1411 6.57682 10.0625 6.1875 10.0625C5.79069 10.0625 5.42008 10.1374 5.07568 10.2871C4.73128 10.4368 4.42806 10.6427 4.16602 10.9048C3.90397 11.1668 3.69808 11.4738 3.54834 11.8257C3.3986 12.1776 3.31999 12.5482 3.3125 12.9375C3.3125 13.3343 3.38737 13.7049 3.53711 14.0493C3.68685 14.3937 3.89274 14.6969 4.15479 14.959C4.41683 15.221 4.72005 15.4269 5.06445 15.5767C5.40885 15.7264 5.7832 15.805 6.1875 15.8125ZM11.9375 4.3125C11.9375 4.70931 12.0124 5.07992 12.1621 5.42432C12.3118 5.76872 12.5177 6.07194 12.7798 6.33398C13.0418 6.59603 13.3451 6.80192 13.6895 6.95166C14.0339 7.1014 14.4082 7.18001 14.8125 7.1875C15.2018 7.1875 15.5724 7.11263 15.9243 6.96289C16.2762 6.81315 16.5794 6.60726 16.834 6.34521C17.0885 6.08317 17.2944 5.77995 17.4517 5.43555C17.6089 5.09115 17.6875 4.7168 17.6875 4.3125C17.6875 3.92318 17.6126 3.55257 17.4629 3.20068C17.3132 2.8488 17.1073 2.54557 16.8452 2.29102C16.5832 2.03646 16.2762 1.83057 15.9243 1.67334C15.5724 1.51611 15.2018 1.4375 14.8125 1.4375C14.4157 1.4375 14.0451 1.51237 13.7007 1.66211C13.3563 1.81185 13.0531 2.01774 12.791 2.27979C12.529 2.54183 12.3231 2.8488 12.1733 3.20068C12.0236 3.55257 11.945 3.92318 11.9375 4.3125Z" fill="white"/>
</svg>
