<svg width="24" height="24" viewBox="0 0 24 24" fill="none" xmlns="http://www.w3.org/2000/svg">
<path d="M12 8.5H19C19.2652 8.5 19.5196 8.39464 19.7071 8.20711C19.8946 8.01957 20 7.76522 20 7.5C20 7.23478 19.8946 6.98043 19.7071 6.79289C19.5196 6.60536 19.2652 6.5 19 6.5H12C11.7348 6.5 11.4804 6.60536 11.2929 6.79289C11.1054 6.98043 11 7.23478 11 7.5C11 7.76522 11.1054 8.01957 11.2929 8.20711C11.4804 8.39464 11.7348 8.5 12 8.5Z" fill="white"/>
<path d="M23.41 3L21 0.59C20.6266 0.214412 20.1196 0.00223279 19.59 0L8 0C7.46957 0 6.96086 0.210714 6.58579 0.585786C6.21071 0.960859 6 1.46957 6 2V9.28C6.00227 9.34389 6.028 9.4047 6.07228 9.45082C6.11655 9.49693 6.17626 9.52512 6.24 9.53C6.61 9.53 7.24 9.53 7.73 9.61C7.76447 9.61277 7.79914 9.60835 7.83182 9.59703C7.8645 9.58571 7.89448 9.56774 7.91985 9.54424C7.94523 9.52075 7.96545 9.49224 7.97925 9.46053C7.99305 9.42881 8.00011 9.39458 8 9.36V2.5C8 2.36739 8.05268 2.24021 8.14645 2.14645C8.24021 2.05268 8.36739 2 8.5 2H19.38C19.4456 1.9992 19.5106 2.01213 19.5709 2.03797C19.6311 2.0638 19.6854 2.10196 19.73 2.15L21.85 4.27C21.898 4.31465 21.9362 4.36885 21.962 4.42913C21.9879 4.48941 22.0008 4.55442 22 4.62V18C22 18.1326 21.9473 18.2598 21.8536 18.3536C21.7598 18.4473 21.6326 18.5 21.5 18.5H14.64C14.5818 18.5016 14.526 18.5234 14.4822 18.5618C14.4384 18.6001 14.4093 18.6525 14.4 18.71C14.3084 19.2071 14.1746 19.6956 14 20.17C13.985 20.207 13.9795 20.2472 13.9839 20.2869C13.9884 20.3266 14.0027 20.3646 14.0255 20.3974C14.0484 20.4301 14.079 20.4567 14.1148 20.4746C14.1505 20.4925 14.1901 20.5013 14.23 20.5H22C22.5304 20.5 23.0391 20.2893 23.4142 19.9142C23.7893 19.5391 24 19.0304 24 18.5V4.41C23.9978 3.88042 23.7856 3.37335 23.41 3Z" fill="white"/>
<path d="M17.5 12C17.5 11.7348 17.3947 11.4804 17.2071 11.2929C17.0196 11.1054 16.7652 11 16.5 11H12.5C12.3729 10.9993 12.2469 11.0247 12.13 11.0745C12.013 11.1244 11.9075 11.1978 11.82 11.29C11.8025 11.3068 11.7885 11.327 11.779 11.3493C11.7694 11.3717 11.7645 11.3957 11.7645 11.42C11.7645 11.4443 11.7694 11.4683 11.779 11.4907C11.7885 11.513 11.8025 11.5332 11.82 11.55C12.2597 11.9573 12.6552 12.4098 13 12.9C13.0218 12.9303 13.0502 12.9551 13.0832 12.9724C13.1162 12.9898 13.1528 12.9992 13.19 13H16.5C16.7652 13 17.0196 12.8947 17.2071 12.7071C17.3947 12.5196 17.5 12.2652 17.5 12Z" fill="white"/>
<path d="M6.5 11C5.21442 11 3.95772 11.3812 2.8888 12.0954C1.81988 12.8097 0.986756 13.8248 0.494786 15.0126C0.00281635 16.2003 -0.125905 17.5072 0.124899 18.7681C0.375703 20.029 0.994768 21.1872 1.90381 22.0962C2.81285 23.0052 3.97104 23.6243 5.23192 23.8751C6.49279 24.1259 7.79973 23.9972 8.98744 23.5052C10.1752 23.0132 11.1903 22.1801 11.9046 21.1112C12.6188 20.0423 13 18.7856 13 17.5C12.9974 15.7769 12.3117 14.1251 11.0933 12.9067C9.87486 11.6883 8.2231 11.0026 6.5 11ZM7.39 21.2C7.34689 21.2116 7.30923 21.238 7.28363 21.2745C7.25803 21.3111 7.24613 21.3555 7.25 21.4V21.75C7.25 21.9489 7.17099 22.1397 7.03033 22.2803C6.88968 22.421 6.69892 22.5 6.5 22.5C6.30109 22.5 6.11032 22.421 5.96967 22.2803C5.82902 22.1397 5.75 21.9489 5.75 21.75V21.42C5.75008 21.3766 5.73355 21.3348 5.7038 21.3032C5.67405 21.2716 5.63333 21.2526 5.59 21.25H5C4.80109 21.25 4.61032 21.171 4.46967 21.0303C4.32902 20.8897 4.25 20.6989 4.25 20.5C4.25 20.3011 4.32902 20.1103 4.46967 19.9697C4.61032 19.829 4.80109 19.75 5 19.75H7C7.15648 19.75 7.30655 19.6878 7.4172 19.5772C7.52784 19.4665 7.59 19.3165 7.59 19.16C7.59191 19.0415 7.55747 18.9253 7.49132 18.8269C7.42517 18.7286 7.33048 18.6529 7.22 18.61L5.16 17.78C4.73093 17.6186 4.36721 17.3199 4.1254 16.9304C3.88358 16.5409 3.77722 16.0825 3.82283 15.6263C3.86845 15.1701 4.06349 14.7418 4.37765 14.4079C4.6918 14.074 5.10746 13.8533 5.56 13.78C5.60597 13.7749 5.64824 13.7524 5.67803 13.717C5.70782 13.6816 5.72285 13.6362 5.72 13.59V13.24C5.72 13.0411 5.79902 12.8503 5.93967 12.7097C6.08033 12.569 6.27109 12.49 6.47 12.49C6.66891 12.49 6.85968 12.569 7.00033 12.7097C7.14099 12.8503 7.22 13.0411 7.22 13.24V13.57C7.22 13.6151 7.23791 13.6583 7.26979 13.6902C7.30168 13.7221 7.34492 13.74 7.39 13.74H8C8.19892 13.74 8.38968 13.819 8.53033 13.9597C8.67099 14.1003 8.75 14.2911 8.75 14.49C8.75 14.6889 8.67099 14.8797 8.53033 15.0203C8.38968 15.161 8.19892 15.24 8 15.24H6C5.84352 15.24 5.69346 15.3022 5.58281 15.4128C5.47216 15.5235 5.41 15.6735 5.41 15.83C5.4081 15.9485 5.44254 16.0647 5.50869 16.1631C5.57484 16.2614 5.66953 16.3371 5.78 16.38L7.84 17.21C8.26922 17.373 8.63245 17.6734 8.87307 18.0644C9.11368 18.4555 9.21816 18.9151 9.17022 19.3717C9.12227 19.8283 8.9246 20.2563 8.60801 20.5888C8.29142 20.9213 7.87371 21.1397 7.42 21.21L7.39 21.2Z" fill="white"/>
</svg>
