<svg width="23" height="22" viewBox="0 0 23 22" fill="none" xmlns="http://www.w3.org/2000/svg">
<path d="M11.4995 2.41595C8.21853 2.41595 5.55664 4.94949 5.55664 8.06988C5.55664 11.6603 9.51852 17.3502 10.9733 19.3154C11.0337 19.3984 11.1128 19.4659 11.2042 19.5124C11.2957 19.559 11.3968 19.5832 11.4995 19.5832C11.6021 19.5832 11.7032 19.559 11.7947 19.5124C11.8861 19.4659 11.9653 19.3984 12.0256 19.3154C13.4804 17.351 17.4423 11.6632 17.4423 8.06988C17.4423 4.94949 14.7804 2.41595 11.4995 2.41595Z" stroke="#A1A1A1" stroke-width="1.32062" stroke-linecap="round" stroke-linejoin="round"/>
<path d="M11.4995 10.3397C12.5935 10.3397 13.4804 9.45279 13.4804 8.35875C13.4804 7.2647 12.5935 6.37781 11.4995 6.37781C10.4055 6.37781 9.51855 7.2647 9.51855 8.35875C9.51855 9.45279 10.4055 10.3397 11.4995 10.3397Z" stroke="#A1A1A1" stroke-width="1.32062" stroke-linecap="round" stroke-linejoin="round"/>
</svg>
