<svg width="23" height="22" viewBox="0 0 23 22" fill="none" xmlns="http://www.w3.org/2000/svg">
<g clip-path="url(#clip0_27_419)">
<path d="M17.3688 17.6083H10.3255V12.9128H9.15161V17.6083H5.62994V12.9128H4.45605V17.6083C4.45605 17.9197 4.57973 18.2183 4.79988 18.4384C5.02003 18.6585 5.31861 18.7822 5.62994 18.7822H17.3688C17.6802 18.7822 17.9788 18.6585 18.1989 18.4384C18.419 18.2183 18.5427 17.9197 18.5427 17.6083V12.9128H17.3688V17.6083Z" fill="#A1A1A1"/>
<path d="M20.7674 7.78875L18.3726 2.99929C18.2755 2.80371 18.1256 2.63912 17.94 2.52403C17.7544 2.40893 17.5404 2.34789 17.322 2.34778H5.67703C5.45864 2.34789 5.24461 2.40893 5.059 2.52403C4.8734 2.63912 4.72358 2.80371 4.6264 2.99929L2.23167 7.78875C2.1499 7.9528 2.10769 8.13371 2.10841 8.317V10.1248C2.10787 10.3991 2.2034 10.6649 2.3784 10.8761C2.63704 11.1726 2.95648 11.4099 3.31501 11.5719C3.67353 11.734 4.06274 11.8169 4.45619 11.8152C5.09817 11.8162 5.72057 11.5942 6.21702 11.1872C6.71346 11.5944 7.33573 11.817 7.97785 11.817C8.61997 11.817 9.24224 11.5944 9.73869 11.1872C10.2351 11.5944 10.8574 11.817 11.4995 11.817C12.1416 11.817 12.7639 11.5944 13.2604 11.1872C13.7568 11.5944 14.3791 11.817 15.0212 11.817C15.6633 11.817 16.2856 11.5944 16.782 11.1872C17.3362 11.6422 18.0452 11.8646 18.76 11.8077C19.4747 11.7508 20.1396 11.4189 20.6148 10.882C20.7919 10.6716 20.8895 10.4057 20.8906 10.1307V8.317C20.8913 8.13371 20.8491 7.9528 20.7674 7.78875ZM18.5429 10.6413C18.2922 10.6407 18.0452 10.5802 17.8227 10.4648C17.6001 10.3495 17.4083 10.1826 17.2633 9.97806L16.782 9.32068L16.3066 9.97806C16.1588 10.1794 15.9658 10.3432 15.7429 10.4561C15.5201 10.5689 15.2739 10.6278 15.0241 10.6278C14.7744 10.6278 14.5281 10.5689 14.3053 10.4561C14.0825 10.3432 13.8894 10.1794 13.7416 9.97806L13.2604 9.32068L12.7849 9.97806C12.6372 10.1794 12.4441 10.3432 12.2213 10.4561C11.9985 10.5689 11.7522 10.6278 11.5025 10.6278C11.2527 10.6278 11.0064 10.5689 10.7836 10.4561C10.5608 10.3432 10.3677 10.1794 10.22 9.97806L9.73869 9.32068L9.26326 9.97806C9.11551 10.1794 8.92242 10.3432 8.69961 10.4561C8.47681 10.5689 8.23055 10.6278 7.98079 10.6278C7.73102 10.6278 7.48477 10.5689 7.26196 10.4561C7.03915 10.3432 6.84606 10.1794 6.69831 9.97806L6.21702 9.32068L5.73572 9.97806C5.59073 10.1826 5.39896 10.3495 5.17638 10.4648C4.95381 10.5802 4.70688 10.6407 4.45619 10.6413C4.23499 10.644 4.01578 10.5993 3.8133 10.5102C3.61081 10.4211 3.42976 10.2897 3.2823 10.1248V8.317L5.67703 3.52167H17.322L19.7167 8.31113V10.1072C19.5702 10.2744 19.3897 10.4085 19.1873 10.5006C18.9849 10.5927 18.7652 10.6407 18.5429 10.6413Z" fill="#A1A1A1"/>
</g>
<defs>
<clipPath id="clip0_27_419">
<rect width="21.13" height="21.13" fill="white" transform="translate(0.93457)"/>
</clipPath>
</defs>
</svg>
